<svg width="42" height="10" viewBox="0 0 42 10" fill="none" xmlns="http://www.w3.org/2000/svg">
<path d="M1.5 4.4C1.16863 4.4 0.9 4.66863 0.9 5C0.9 5.33137 1.16863 5.6 1.5 5.6V4.4ZM41.4243 5.42426C41.6586 5.18995 41.6586 4.81005 41.4243 4.57574L37.6059 0.757359C37.3716 0.523045 36.9917 0.523045 36.7574 0.757359C36.523 0.991674 36.523 1.37157 36.7574 1.60589L40.1515 5L36.7574 8.39411C36.523 8.62843 36.523 9.00833 36.7574 9.24264C36.9917 9.47696 37.3716 9.47696 37.6059 9.24264L41.4243 5.42426ZM2.73438 5.6C3.06575 5.6 3.33438 5.33137 3.33438 5C3.33438 4.66863 3.06575 4.4 2.73438 4.4V5.6ZM5.20312 4.4C4.87175 4.4 4.60313 4.66863 4.60313 5C4.60313 5.33137 4.87175 5.6 5.20312 5.6V4.4ZM7.67188 5.6C8.00325 5.6 8.27187 5.33137 8.27187 5C8.27187 4.66863 8.00325 4.4 7.67188 4.4V5.6ZM10.1406 4.4C9.80925 4.4 9.54062 4.66863 9.54062 5C9.54062 5.33137 9.80925 5.6 10.1406 5.6V4.4ZM12.6094 5.6C12.9407 5.6 13.2094 5.33137 13.2094 5C13.2094 4.66863 12.9407 4.4 12.6094 4.4V5.6ZM15.0781 4.4C14.7468 4.4 14.4781 4.66863 14.4781 5C14.4781 5.33137 14.7468 5.6 15.0781 5.6V4.4ZM17.5469 5.6C17.8782 5.6 18.1469 5.33137 18.1469 5C18.1469 4.66863 17.8782 4.4 17.5469 4.4V5.6ZM20.0156 4.4C19.6843 4.4 19.4156 4.66863 19.4156 5C19.4156 5.33137 19.6843 5.6 20.0156 5.6V4.4ZM22.4844 5.6C22.8157 5.6 23.0844 5.33137 23.0844 5C23.0844 4.66863 22.8157 4.4 22.4844 4.4V5.6ZM24.9531 4.4C24.6218 4.4 24.3531 4.66863 24.3531 5C24.3531 5.33137 24.6218 5.6 24.9531 5.6V4.4ZM27.4219 5.6C27.7532 5.6 28.0219 5.33137 28.0219 5C28.0219 4.66863 27.7532 4.4 27.4219 4.4V5.6ZM29.8906 4.4C29.5593 4.4 29.2906 4.66863 29.2906 5C29.2906 5.33137 29.5593 5.6 29.8906 5.6V4.4ZM32.3594 5.6C32.6907 5.6 32.9594 5.33137 32.9594 5C32.9594 4.66863 32.6907 4.4 32.3594 4.4V5.6ZM34.8281 4.4C34.4968 4.4 34.2281 4.66863 34.2281 5C34.2281 5.33137 34.4968 5.6 34.8281 5.6V4.4ZM37.2969 5.6C37.6282 5.6 37.8969 5.33137 37.8969 5C37.8969 4.66863 37.6282 4.4 37.2969 4.4V5.6ZM39.7656 4.4C39.4343 4.4 39.1656 4.66863 39.1656 5C39.1656 5.33137 39.4343 5.6 39.7656 5.6V4.4ZM1.5 5.6H2.73438V4.4H1.5V5.6ZM5.20312 5.6H7.67188V4.4H5.20312V5.6ZM10.1406 5.6H12.6094V4.4H10.1406V5.6ZM15.0781 5.6H17.5469V4.4H15.0781V5.6ZM20.0156 5.6H22.4844V4.4H20.0156V5.6ZM24.9531 5.6H27.4219V4.4H24.9531V5.6ZM29.8906 5.6H32.3594V4.4H29.8906V5.6ZM34.8281 5.6H37.2969V4.4H34.8281V5.6ZM39.7656 5.6H41V4.4H39.7656V5.6Z" fill="#6B7280"/>
</svg>
